<svg width="280" height="67" viewBox="0 0 280 67" fill="none" xmlns="http://www.w3.org/2000/svg">
<path d="M34.944 43.416C34.944 45.1333 34.7013 46.7013 34.216 48.12C33.7307 49.5013 32.872 50.696 31.64 51.704C30.4453 52.6747 28.784 53.44 26.656 54C24.528 54.56 21.8213 54.84 18.536 54.84C15.288 54.84 12.6 54.56 10.472 54C8.38133 53.44 6.72 52.6747 5.488 51.704C4.29333 50.696 3.45333 49.5013 2.968 48.12C2.52 46.7013 2.296 45.1333 2.296 43.416V34.344C2.296 33.6347 2.44533 33.1307 2.744 32.832C3.08 32.496 3.60267 32.328 4.312 32.328H12.432C13.1413 32.328 13.6453 32.496 13.944 32.832C14.28 33.1307 14.448 33.6347 14.448 34.344V41.176C14.448 41.9227 14.672 42.5573 15.12 43.08C15.6053 43.5653 16.7067 43.808 18.424 43.808C20.0293 43.808 21.0373 43.5653 21.448 43.08C21.896 42.5573 22.12 41.9227 22.12 41.176V15.696C22.12 14.9867 22.2693 14.4827 22.568 14.184C22.904 13.848 23.4267 13.68 24.136 13.68H32.928C33.6373 13.68 34.1413 13.848 34.44 14.184C34.776 14.4827 34.944 14.9867 34.944 15.696V43.416ZM90.8491 54H82.1691C81.4597 54 80.9371 53.8507 80.6011 53.552C80.3024 53.216 80.1531 52.6933 80.1531 51.984V15.696C80.1531 14.9867 80.3024 14.4827 80.6011 14.184C80.9371 13.848 81.4597 13.68 82.1691 13.68H90.8491C91.5584 13.68 92.0624 13.848 92.3611 14.184C92.6971 14.4827 92.8651 14.9867 92.8651 15.696V28.576H95.1051L100.873 15.528C101.134 14.856 101.489 14.3893 101.937 14.128C102.385 13.8293 102.964 13.68 103.673 13.68H112.297C112.932 13.68 113.361 13.848 113.585 14.184C113.809 14.4827 113.79 14.9307 113.529 15.528L107.817 28.576C109.908 28.688 111.569 29.4347 112.801 30.816C114.07 32.16 114.705 33.952 114.705 36.192V51.984C114.705 52.6933 114.537 53.216 114.201 53.552C113.902 53.8507 113.398 54 112.689 54H104.065C103.356 54 102.833 53.8507 102.497 53.552C102.198 53.216 102.049 52.6933 102.049 51.984V41.064C102.049 40.4667 101.9 40 101.601 39.664C101.302 39.328 100.854 39.16 100.257 39.16H92.8651V51.984C92.8651 52.6933 92.6971 53.216 92.3611 53.552C92.0624 53.8507 91.5584 54 90.8491 54ZM141.281 54H132.209C131.499 54 130.977 53.8507 130.641 53.552C130.342 53.216 130.193 52.6933 130.193 51.984V44.816L121.625 33.336C120.766 32.1787 120.187 31.1707 119.889 30.312C119.627 29.4533 119.497 28.1653 119.497 26.448V15.696C119.497 14.9867 119.646 14.4827 119.945 14.184C120.281 13.848 120.803 13.68 121.513 13.68H130.137C130.846 13.68 131.35 13.848 131.649 14.184C131.985 14.4827 132.153 14.9867 132.153 15.696V24.88C132.153 25.2533 132.171 25.6453 132.209 26.056C132.246 26.4667 132.395 26.8587 132.657 27.232L135.233 31.264C135.419 31.6 135.606 31.8427 135.793 31.992C136.017 32.1413 136.278 32.216 136.577 32.216H137.137C137.435 32.216 137.678 32.1413 137.865 31.992C138.089 31.8427 138.294 31.6 138.481 31.264L141.057 27.232C141.318 26.8587 141.467 26.4667 141.505 26.056C141.542 25.6453 141.561 25.2533 141.561 24.88V15.696C141.561 14.9867 141.71 14.4827 142.009 14.184C142.345 13.848 142.867 13.68 143.577 13.68H151.921C152.63 13.68 153.134 13.848 153.433 14.184C153.769 14.4827 153.937 14.9867 153.937 15.696V26.448C153.937 28.1653 153.787 29.4533 153.489 30.312C153.19 31.1707 152.63 32.1787 151.809 33.336L143.297 44.872V51.984C143.297 52.6933 143.129 53.216 142.793 53.552C142.494 53.8507 141.99 54 141.281 54ZM173.519 25.44L170.887 33.952H179.679L177.047 25.44C176.898 25.104 176.73 24.8613 176.543 24.712C176.394 24.5627 176.207 24.488 175.983 24.488H174.583C174.359 24.488 174.154 24.5627 173.967 24.712C173.818 24.8613 173.668 25.104 173.519 25.44ZM170.327 51.984C170.327 52.6933 170.159 53.216 169.823 53.552C169.524 53.8507 169.02 54 168.311 54H160.079C159.37 54 158.847 53.8507 158.511 53.552C158.212 53.216 158.063 52.6933 158.063 51.984V37.2C158.063 36.08 158.231 34.792 158.567 33.336C158.94 31.88 159.5 30.1813 160.247 28.24L165.119 15.528C165.343 14.8933 165.679 14.4267 166.127 14.128C166.612 13.8293 167.228 13.68 167.975 13.68H183.039C183.748 13.68 184.327 13.8293 184.775 14.128C185.26 14.4267 185.615 14.8933 185.839 15.528L190.711 28.24C191.458 30.1813 191.999 31.88 192.335 33.336C192.708 34.792 192.895 36.08 192.895 37.2V51.984C192.895 52.6933 192.727 53.216 192.391 53.552C192.092 53.8507 191.588 54 190.879 54H182.423C181.676 54 181.116 53.8507 180.743 53.552C180.407 53.216 180.239 52.6933 180.239 51.984V44.144H170.327V51.984ZM210.505 54H201.825C201.116 54 200.593 53.8507 200.257 53.552C199.959 53.216 199.809 52.6933 199.809 51.984V15.696C199.809 14.9867 199.959 14.4827 200.257 14.184C200.593 13.848 201.116 13.68 201.825 13.68H210.505C211.215 13.68 211.719 13.848 212.017 14.184C212.353 14.4827 212.521 14.9867 212.521 15.696V28.576H214.761L220.529 15.528C220.791 14.856 221.145 14.3893 221.593 14.128C222.041 13.8293 222.62 13.68 223.329 13.68H231.953C232.588 13.68 233.017 13.848 233.241 14.184C233.465 14.4827 233.447 14.9307 233.185 15.528L227.473 28.576C229.564 28.688 231.225 29.4347 232.457 30.816C233.727 32.16 234.361 33.952 234.361 36.192V51.984C234.361 52.6933 234.193 53.216 233.857 53.552C233.559 53.8507 233.055 54 232.345 54H223.721C223.012 54 222.489 53.8507 222.153 53.552C221.855 53.216 221.705 52.6933 221.705 51.984V41.064C221.705 40.4667 221.556 40 221.257 39.664C220.959 39.328 220.511 39.16 219.913 39.16H212.521V51.984C212.521 52.6933 212.353 53.216 212.017 53.552C211.719 53.8507 211.215 54 210.505 54ZM275.919 43.416C275.919 45.1333 275.657 46.7013 275.135 48.12C274.649 49.5013 273.753 50.696 272.447 51.704C271.177 52.6747 269.423 53.44 267.183 54C264.943 54.56 262.087 54.84 258.615 54.84C255.143 54.84 252.287 54.56 250.047 54C247.807 53.44 246.033 52.6747 244.727 51.704C243.457 50.696 242.561 49.5013 242.039 48.12C241.553 46.7013 241.311 45.1333 241.311 43.416V15.696C241.311 14.9867 241.46 14.4827 241.759 14.184C242.095 13.848 242.617 13.68 243.327 13.68H252.119C252.828 13.68 253.332 13.848 253.631 14.184C253.967 14.4827 254.135 14.9867 254.135 15.696V41.232C254.135 41.9787 254.415 42.6133 254.975 43.136C255.535 43.6213 256.785 43.864 258.727 43.864C260.705 43.864 261.975 43.6213 262.535 43.136C263.095 42.6133 263.375 41.9787 263.375 41.232V15.696C263.375 14.9867 263.524 14.4827 263.823 14.184C264.159 13.848 264.681 13.68 265.391 13.68H273.903C274.612 13.68 275.116 13.848 275.415 14.184C275.751 14.4827 275.919 14.9867 275.919 15.696V43.416Z" fill="url(#paint0_linear_6_39)"/>
<path d="M42.625 27.125H46.875H42.625ZM55.375 27.125H59.625H55.375ZM68.125 27.125L72.375 27.125L68.125 27.125ZM42.625 48.375C42.625 49.5022 43.0728 50.5832 43.8698 51.3802C44.6668 52.1772 45.7478 52.625 46.875 52.625H53.25C53.25 51.4978 53.6978 50.4168 54.4948 49.6198C55.2918 48.8228 56.3728 48.375 57.5 48.375C58.6272 48.375 59.7082 48.8228 60.5052 49.6198C61.3022 50.4168 61.75 51.4978 61.75 52.625H68.125C69.2522 52.625 70.3332 52.1772 71.1302 51.3802C71.9272 50.5832 72.375 49.5022 72.375 48.375V18.625C72.375 17.4978 71.9272 16.4168 71.1302 15.6198C70.3332 14.8228 69.2522 14.375 68.125 14.375H61.75C61.75 15.5022 61.3022 16.5832 60.5052 17.3802C59.7082 18.1772 58.6272 18.625 57.5 18.625C56.3728 18.625 55.2918 18.1772 54.4948 17.3802C53.6978 16.5832 53.25 15.5022 53.25 14.375H46.875C45.7478 14.375 44.6668 14.8228 43.8698 15.6198C43.0728 16.4168 42.625 17.4978 42.625 18.625V48.375Z" stroke="url(#paint1_linear_6_39)" stroke-width="4" stroke-linecap="round" stroke-linejoin="round"/>
<defs>
<linearGradient id="paint0_linear_6_39" x1="140" y1="0" x2="140" y2="67" gradientUnits="userSpaceOnUse">
<stop stop-color="#8D4863"/>
<stop offset="1" stop-color="#5C2442"/>
</linearGradient>
<linearGradient id="paint1_linear_6_39" x1="42.625" y1="33.5" x2="72.375" y2="33.5" gradientUnits="userSpaceOnUse">
<stop stop-color="#8D4863"/>
<stop offset="1" stop-color="#5C2442"/>
</linearGradient>
</defs>
</svg>
